<?xml version="1.0" encoding="utf-8"?>
<!-- Generator: Adobe Illustrator 25.4.1, SVG Export Plug-In . SVG Version: 6.00 Build 0)  -->
<svg version="1.1"
	 id="svg213622" xmlns:cc="http://creativecommons.org/ns#" xmlns:dc="http://purl.org/dc/elements/1.1/" xmlns:rdf="http://www.w3.org/1999/02/22-rdf-syntax-ns#" xmlns:svg="http://www.w3.org/2000/svg"
	 xmlns="http://www.w3.org/2000/svg" xmlns:xlink="http://www.w3.org/1999/xlink" x="0px" y="0px" viewBox="0 0 435.9 389.9"
	 style="enable-background:new 0 0 435.9 389.9;" xml:space="preserve">
<style type="text/css">
	.st0{fill:#424C55;}
</style>
<g id="logo-group">
	<g id="logo-center" transform="translate(0 0)">
		<g>
			<g>
				<defs>
					<polygon id="SVGID_1_" points="-295.8,-194.5 -294.8,-194.5 -295.8,-193.5 					"/>
				</defs>
				<clipPath id="SVGID_00000104666275283067830950000006187104397474324126_">
					<use xlink:href="#SVGID_1_"  style="overflow:visible;"/>
				</clipPath>
			</g>
		</g>
		<g id="slogan" transform="translate(0 0)">
		</g>
		<g id="title" transform="translate(0 0)">
			<path id="path213631" class="st0" d="M83,225.1c-1.3-3.1-3.1-5.8-5.5-8.2c-2.4-2.3-5.1-4.1-8.2-5.5c-3.1-1.3-6.5-2-10-2
				c-3.4,0-6.8,0.6-10,2c-3.1,1.4-5.8,3.2-8.2,5.5c-2.3,2.3-4.1,5.1-5.5,8.2c-1.3,3.1-2,6.5-2,10v38.2l13.5,4.5v-20.2
				c0.7,0.4,1.4,0.7,2.2,1c3.1,1.4,6.6,2.1,10,2.1s6.8-0.7,10-2.1c3.1-1.3,5.8-3.1,8.2-5.5c2.3-2.3,4.1-5,5.5-8.1
				c1.3-3.1,2-6.6,2-10C84.9,231.5,84.3,228.2,83,225.1L83,225.1z M59.3,247.2c-6.7,0-12.2-5.5-12.2-12.1c0-6.7,5.5-12.2,12.2-12.2
				s12.2,5.5,12.2,12.2C71.4,241.7,66,247.2,59.3,247.2z"/>
			<path id="path213633" class="st0" d="M89.7,260h13.6v-72.5L89.7,192V260z"/>
			<path id="path213635" class="st0" d="M145.4,209.3l0.1,2.9c-3.6-1.8-7.6-2.8-11.6-2.8c-3.4,0-6.8,0.6-10,2
				c-3.1,1.4-5.8,3.1-8.2,5.5c-2.3,2.3-4.1,5.1-5.5,8.2c-1.3,3.2-2,6.6-2,10s0.7,6.8,2,10c1.3,3.1,3.1,5.8,5.5,8.2
				c2.4,2.3,5.1,4.1,8.2,5.5c3.2,1.3,6.6,2,10,2c4.1,0,8-1,11.6-2.8l-0.1,2.1h13.5v-50.7h-13.5V209.3z M140,245.5
				c-1.8,1.1-4,1.7-6.1,1.7c-6.7,0-12.1-5.5-12.1-12.1s5.5-12.2,12.1-12.2c2.3,0,4.7,0.6,6.6,2c2,1.2,3.5,3,4.4,5
				c0.8,1.6,1.2,3.3,1.2,5.1c0,2.2-0.5,4.2-1.6,6.1C143.3,243,141.9,244.5,140,245.5L140,245.5z"/>
			<path id="path213637" class="st0" d="M204.2,217.3c-4.3-4.2-10-6.6-16-6.6c-3.2,0-6.3,0.6-9.1,1.9v-3.3h-13.5v22.1
				c-0.1,0.7-0.1,1.3-0.1,2.1h0.1V260h13.5v-27.9c0.6-4.4,4.4-7.8,9.1-7.8c5,0,9.2,4.1,9.2,9.2V260h13.5v-26.6
				C210.8,227.3,208.4,221.6,204.2,217.3L204.2,217.3z"/>
			<path id="path213639" class="st0" d="M256,217.3c-4.3-4.2-10-6.6-16-6.6c-3.2,0-6.3,0.6-9.1,1.9v-3.3h-13.5v22.1
				c-0.1,0.7-0.1,1.3-0.1,2.1h0.1V260h13.5v-27.9c0.6-4.4,4.4-7.8,9.1-7.8c5,0,9.2,4.1,9.2,9.2V260h13.5v-26.6
				C262.7,227.3,260.3,221.6,256,217.3L256,217.3z"/>
			<path id="path213641" class="st0" d="M290.5,260.3c3.5,0,6.9-0.7,10.2-2.2c3.2-1.4,5.9-3.3,8.3-5.8l-9.5-9
				c-2.3,2.5-5.5,3.9-8.9,3.9c-4.4,0-8.3-2.3-10.4-5.8h35.7V235c0-6.8-2.6-13.1-7.4-17.9c-4.8-4.8-11.2-7.5-17.9-7.5
				c-6.8,0-13.1,2.7-18,7.5c-4.8,4.8-7.4,11.2-7.4,17.9s2.6,13.1,7.4,17.9C277.4,257.6,283.7,260.3,290.5,260.3z M280.1,228.5
				c2.2-3.5,6-5.9,10.4-5.9c4.3,0,8.2,2.3,10.4,5.9H280.1z"/>
			<path id="path213643" class="st0" d="M332.4,260L332.4,260v-22.1c0-8.6,7-15.8,15.7-15.8v-13.5c-4,0-7.8,0.8-11.4,2.3
				c-3.4,1.4-6.6,3.6-9.3,6.3c-2.7,2.6-4.8,5.8-6.3,9.3c-1.5,3.6-2.2,7.4-2.2,11.3V260H332.4z"/>
			<path id="path213645" class="st0" d="M355.2,277.8h14.3l27.4-68h-14.4l-11.3,28.4L359,209.9h-14.9l20.1,45.4L355.2,277.8z"/>
			<path id="path213647" class="st0" d="M172.3,340.1c3.5,0,6.9-0.7,10.2-2.2c3.2-1.4,5.9-3.3,8.3-5.8l-9.5-9
				c-2.3,2.5-5.5,3.9-8.9,3.9c-4.4,0-8.3-2.3-10.4-5.8h35.7v-6.6c0-6.8-2.6-13.1-7.4-17.9c-4.8-4.8-11.2-7.5-17.9-7.5
				c-6.8,0-13.1,2.7-18,7.5c-4.8,4.8-7.4,11.2-7.4,17.9s2.6,13.1,7.4,17.9C159.2,337.4,165.5,340.1,172.3,340.1z M161.9,308.3
				c2.2-3.5,6-5.9,10.4-5.9c4.3,0,8.2,2.3,10.4,5.9H161.9z"/>
			<path id="path213649" class="st0" d="M214.3,339.8L214.3,339.8v-22.1c0-8.6,7-15.8,15.7-15.8v-13.5c-4,0-7.8,0.8-11.4,2.3
				c-3.4,1.4-6.6,3.6-9.3,6.3c-2.7,2.6-4.8,5.8-6.3,9.3c-1.5,3.6-2.2,7.4-2.2,11.3v22.1h13.5V339.8z"/>
			<path id="path213651" class="st0" d="M281.5,304.9c-1.4-3.1-3.2-5.8-5.5-8.2c-2.4-2.3-5.1-4.1-8.2-5.5c-3.2-1.4-6.5-2-10-2
				c-3.4,0-6.8,0.6-10,2c-3.1,1.4-5.8,3.1-8.2,5.5c-2.3,2.3-4.1,5.1-5.5,8.2c-1.3,3.2-2,6.5-2,10v38.2l13.5,4.5v-20.2
				c0.7,0.4,1.4,0.7,2.2,1c3.2,1.4,6.6,2.1,10,2.1s6.8-0.7,10-2.1c3.1-1.3,5.8-3.1,8.2-5.5c2.3-2.3,4.1-5,5.5-8.1s2-6.6,2-10
				C283.5,311.3,282.9,308,281.5,304.9z M257.9,327c-6.7,0-12.1-5.5-12.1-12.1s5.5-12.1,12.1-12.1c6.7,0,12.1,5.5,12.1,12.1
				S264.5,327,257.9,327z"/>
		</g>
	</g>
</g>
<g id="LHzhZT.tif">
	
		<image style="overflow:visible;" width="480" height="478" id="Ebene_1_00000100360866900812806820000010418854562388187550_" xlink:href="E055F87EB58AF97D.png"  transform="matrix(0.2938 0 0 0.2938 149.5185 35.8603)">
	</image>
</g>
</svg>
